<svg xmlns="http://www.w3.org/2000/svg" width="255.118" height="31.635" viewBox="0 0 255.118 31.635">
  <g id="Group_1" data-name="Group 1" transform="translate(-319.841 -627.996)">
    <path id="Path_1" data-name="Path 1" d="M348.03,628.017H337.554l17.785,31.594h10.476Z" fill="#fff"/>
    <path id="Path_2" data-name="Path 2" d="M327.6,645.827h10.476l-7.762,13.783H319.841Z" fill="#fff"/>
    <path id="Path_3" data-name="Path 3" d="M460.362,642.354v-5.72a8.123,8.123,0,0,0-1.9-5.159,9.532,9.532,0,0,0-7.3-3.479h-30.8V659.63h9.311l0-8.7h14.14q4.993,8.2,5.4,8.7h11.154l-5.672-9.345,1.167-.561q4.506-2.918,4.505-7.37m-9.444-1.622a3.384,3.384,0,0,1-3.583,2.684H429.668v-7.9h17.776a4.746,4.746,0,0,1,1.384.206,3.718,3.718,0,0,1,2.2,3.8,7.014,7.014,0,0,1-.108,1.208" fill="#fff"/>
    <rect id="Rectangle_3" data-name="Rectangle 3" width="9.309" height="31.635" transform="translate(469.072 627.996)" fill="#fff"/>
    <path id="Path_4" data-name="Path 4" d="M544.02,628a12.424,12.424,0,0,0-4.641,1.415q-4.424,2.832-4.423,7.165v2.182a7.838,7.838,0,0,0,1.492,4.54,9.627,9.627,0,0,0,7.817,3.95h18.888a2.451,2.451,0,0,1,1.059.207,2.366,2.366,0,0,1,1.411,2.211c0,.079-.036.353-.109.825a2.362,2.362,0,0,1-2.361,1.651h-28.2v7.489h30.8a9.585,9.585,0,0,0,4.233-1q4.966-2.861,4.967-7.488v-2.183a8.048,8.048,0,0,0-1.9-5.1,9.407,9.407,0,0,0-7.164-3.479H546.734a2.388,2.388,0,0,1-1.031-.206,2.436,2.436,0,0,1,.922-4.658h28.334V628Z" fill="#fff"/>
    <path id="Path_5" data-name="Path 5" d="M412.808,628h-40v31.635h40l-2.316-7.489H382.114v-4.894H403.49v-6.869H382.114v-4.864l28.378,0Z" fill="#fff"/>
    <path id="Path_6" data-name="Path 6" d="M527.4,628h-40v31.635h40l-2.316-7.489H496.71v-4.894h21.376v-6.869H496.71v-4.864l28.378,0Z" fill="#fff"/>
  </g>
</svg>
